<svg id="Layer_1" data-name="Layer 1" xmlns="http://www.w3.org/2000/svg" viewBox="0 0 894.15 691.25"><defs><style>.cls-1,.cls-3{fill:#15249d;}.cls-2{fill:none;stroke:#000;stroke-miterlimit:10;stroke-width:0.25px;}.cls-3{font-size:71px;font-family:ArialNarrow, Arial;}.cls-4{letter-spacing:-0.01em;}</style></defs><title>Logo Terra1.0</title><path class="cls-1" d="M799.12,284.37c25.24,44.07,45.82,82.78,45.79,175.94l-638.13,1.34c-.25-65,2.91-115.67,48.68-186C302.12,203.92,391.52,127,525.85,127,687,127,774.79,241.87,799.12,284.37Zm-97,146.94H817.79s-3-84.33-52.67-149.67c-13.63,10.58-57.67,34.67-82.33,43.14C694.45,347.31,704.12,405.31,702.12,431.31ZM672.46,295.36c21.4-9.15,44-18.16,71.62-37.42-32.27-41.24-98.47-83.56-151.64-92.36C627.37,202.17,654.65,250.38,672.46,295.36Zm-.47,136c1.2-26.84-9.61-80.84-17.92-96.08,0,0-41.45,16.74-113.42,19.33l.58,76.75Zm-27.48-125C619.8,248.47,573.29,183.9,542,158.9c-1.72,105.18-2.25,60.78-.88,165.75C567.52,326.31,633.89,310.82,644.51,306.3Zm-132,17.84c1.38-105,1.74-59.56,0-164.75-32.67,24.25-77,90.25-102,148.08C421.19,312,485.79,325.81,512.46,324.14Zm-2.81,107.17.57-76.75c-69.9-2.59-110.16-19.33-110.16-19.33-8.08,15.24-18.58,69.24-17.41,96.08ZM382,298.86c17.8-45,46.71-96.69,81.63-133.28-53.16,8.8-123.16,51.8-155.43,93C335.79,277.88,360.58,289.71,382,298.86ZM236.79,431.31H352.46c-2-26,7.66-84,19.33-106.53-24.67-8.47-68.71-32.56-82.33-43.14C239.79,347,236.79,431.31,236.79,431.31Z" transform="translate(-82.08 -15.6)"/><path class="cls-1" d="M844.65,555.86v27.45h-1l-638,.55V555.31h1Zm-2,25.91V558.31l-635-.54v24.54Z" transform="translate(-82.08 -15.6)"/><polygon class="cls-1" points="760.57 542.71 760.57 566.16 125.57 566.71 125.57 542.16 760.57 542.71"/><polygon class="cls-1" points="894.02 501.21 894.02 509.71 794.7 512.29 794.52 503.13 871.86 463.96 793.2 466.13 793.2 458.13 892.95 454.88 893.11 463.96 816.2 503.3 894.02 501.21"/><polygon class="cls-1" points="893.02 525.97 893.02 581.45 880.95 581.45 881.2 557.97 793.13 557.59 793.04 548.59 881.11 548.97 881.11 525.97 893.02 525.97"/><polygon class="cls-1" points="886.7 387.75 890.95 438.13 879 439.13 875.65 398.13 845.2 400.67 848.2 439.13 836.57 440.14 833.25 401.63 799.13 404.56 802.95 447.19 791.13 448.19 786.86 396.3 886.7 387.75"/><polygon class="cls-1" points="871.02 350 873.59 363.8 775.07 381.63 773.57 372.88 855.45 358.13 769.82 352.63 768.45 344.5 848.32 309.63 764.82 324.5 763.32 315.63 861.7 298 864.32 311.75 783.82 346.63 871.02 350"/><polygon class="cls-1" points="827.95 216.5 848.32 262.5 837.86 267.5 820.95 229.63 793.07 242.13 808.7 277.5 797.95 282.25 782.07 247 750.82 260.69 768.2 300.13 757.7 304.88 736.45 257.13 827.95 216.5"/><path class="cls-1" d="M873.77,195.73c.37,14-14.25,26-14.25,26l-7.13-5.25c9.21-9.25,10.38-12.91,10.13-20.87-.12-3.82-4.13-13.67-14.13-16.88-12.31-3.95-33.5,5.38-46.25,16.5s-16.62,23.63-10,36S812.27,243,812.27,243l15.37-10-11-17.5,9.75-6.12,15.88,24.75L811,254.23c-9.63-1.25-22.75-5.37-30-18.12-8-14-1.13-30.5,6-39.13s20-17.12,20-17.12,17.5-11.5,35.12-12.13S873.39,181.73,873.77,195.73Z" transform="translate(-82.08 -15.6)"/><path class="cls-1" d="M802.77,117.11l-42.84,94.71-8-6.88,13.38-28.33-22.34-18.92-25.45,18-7.55-6.41L795,110.61ZM770,166.36,791.89,122l-39.75,29.22Z" transform="translate(-82.08 -15.6)"/><polygon class="cls-1" points="664.7 59.26 615.32 146.38 607.2 141.63 613.7 55.13 575.07 123.5 567.45 119 616.88 31.82 624.95 36.56 618.45 122.63 657.07 54.88 664.7 59.26"/><path class="cls-1" d="M631,27.36l4.87,104.08-9.5-2.46-1-31.25L597,91.15l-14.5,27.58-9.63-2.37,48.88-91.25Zm-6.42,59-.67-49.17L601.77,81.07Z" transform="translate(-82.08 -15.6)"/><polygon class="cls-1" points="476.7 0.13 475.69 100.75 467.69 100.75 468.44 17.63 447.31 100 438.81 100 419.69 16 417.69 100 409.69 100 411.06 0.13 422.9 0.13 443.19 86.13 465.32 0.13 476.7 0.13"/><path class="cls-1" d="M412.1,76.65C432,79.73,435.85,106.32,432,117.73c-2.84,11.17-23.5,15.17-42.5,21.25L360.35,43.4c14.17-5,30.58-9.42,36.05-9,6.27.48,13.05,4.81,17.37,14.83C418.43,60.07,415.93,71.65,412.1,76.65Zm10.52,35.58c.83-1.59,1.76-9.14-.54-15.12s-6.81-10.43-10-11.11c-3.69-.8-13.61,1.48-27.18,6.36l10,32.71C415.4,119,419.6,118.07,422.62,112.23Zm-41.48-31.5c29.75-5.5,30.18-14.2,24.39-26.63-3.89-8.37-4.89-11.74-32.89-2Z" transform="translate(-82.08 -15.6)"/><polygon class="cls-1" points="289.94 115.88 296.06 126.13 250.81 152.63 200.19 66.38 243.69 40.63 249.69 50.88 214.06 71.75 229.56 98.25 262.69 78.75 269.06 88.75 235.81 108.25 252.81 137.75 289.94 115.88"/><polygon class="cls-1" points="176.25 84.34 237.85 165.47 231.94 172.22 155.56 126.63 209.44 197.44 203 204.56 115.94 151.63 122.38 144.44 195.28 191.5 142.35 122.08 149.97 113.73 223.85 159.16 169.84 91.38 176.25 84.34"/><path class="cls-1" d="M246.52,249.86l-5.25,9-30.13-7.38-14.62,25.75,22.62,20.88-4.71,9-74-72.63,4.88-8.5Zm-58,19.37,11.58-20.5-47.58-12.87Z" transform="translate(-82.08 -15.6)"/><path class="cls-1" d="M214.43,318.9l-2.58,11.33s-40.11,5.67-46.92,11.59c-5.08,4.41-6,17.7-6,17.7l43.33,10.58-2.33,8.8L102.7,355.61c3.63-13,5.75-27.81,8.82-35.38,5.82-14.39,18.5-16.62,36.5-11.12C158.14,312.2,164.18,320,164.31,333a18.14,18.14,0,0,1,6.72-4.53C180,325,214.43,318.9,214.43,318.9Zm-66.54,38.2c.73-3.87,8.29-24.62,4-32.7-4.07-7.75-21.5-11.42-27-4.81-5.83,6.93-8.94,29.79-8.94,29.79Z" transform="translate(-82.08 -15.6)"/><path class="cls-1" d="M189.89,394.68v10.8s-41.46,13.34-45.5,21.38c-1.92,3.83-1.37,10.87-1.25,16.62l43.75,2.75v9.13l-99.37-6.63s1.62-29.62,3.5-39.87,13-14.79,28-14.13c16.41.73,24.16,11.5,25.37,21.44C151.27,406.32,189.89,394.68,189.89,394.68Zm-57.66,47.89c2.62-25.09,1-29.87-.8-32.25-3.08-4.17-10.75-5.92-14.33-6.17s-12.58,1.75-14.75,6.5c-2.65,5.81-4,29.5-4,29.5Z" transform="translate(-82.08 -15.6)"/><polygon class="cls-1" points="101.81 460.19 101.81 509.88 2.56 509.88 2.56 460.19 12.76 460.19 12.7 501.73 45.09 501.73 45.09 463.25 54.81 463.25 54.81 501.75 90.94 501.75 90.94 460.19 101.81 460.19"/><polygon class="cls-1" points="98.69 548.75 98.69 557.38 10.81 557.38 10.81 580.75 0.13 580.75 0.13 526.32 10.81 526.32 10.63 548.75 98.69 548.75"/><polygon class="cls-2" points="10.81 526.32 0.13 526.32 0.13 580.75 10.81 580.75 10.81 557.38 98.69 557.38 98.69 548.75 10.63 548.75 10.81 526.32"/><polygon class="cls-2" points="12.76 460.19 2.56 460.19 2.56 509.88 101.81 509.88 101.81 460.19 90.94 460.19 90.94 501.75 54.81 501.75 54.81 463.25 45.09 463.25 45.09 501.73 12.7 501.73 12.76 460.19"/><path class="cls-2" d="M144.39,416.17c-1.21-9.94-9-20.71-25.37-21.44-15-.66-26.13,3.88-28,14.13s-3.5,39.87-3.5,39.87l99.37,6.63v-9.13l-43.75-2.75c-.12-5.75-.67-12.79,1.25-16.62,4-8,45.5-21.38,45.5-21.38v-10.8S151.27,406.32,144.39,416.17Z" transform="translate(-82.08 -15.6)"/><path class="cls-2" d="M132.23,442.57c2.62-25.09,1-29.87-.8-32.25-3.08-4.17-10.75-5.92-14.33-6.17s-12.58,1.75-14.75,6.5c-2.65,5.81-4,29.5-4,29.5Z" transform="translate(-82.08 -15.6)"/><path class="cls-2" d="M164.31,333c-.13-13-6.17-20.78-16.29-23.87-18-5.5-30.68-3.27-36.5,11.12-3.07,7.57-5.19,22.39-8.82,35.38l97.23,23.29,2.33-8.8-43.33-10.58s.92-13.29,6-17.7c6.81-5.92,46.92-11.59,46.92-11.59l2.58-11.33S180,325,171,328.45A18.14,18.14,0,0,0,164.31,333Z" transform="translate(-82.08 -15.6)"/><path class="cls-2" d="M147.89,357.1c.73-3.87,8.29-24.62,4-32.7-4.07-7.75-21.5-11.42-27-4.81-5.83,6.93-8.94,29.79-8.94,29.79Z" transform="translate(-82.08 -15.6)"/><polygon class="cls-2" points="164.44 234.25 63.2 210.38 58.31 218.88 132.35 291.5 137.06 282.5 114.44 261.63 129.06 235.88 159.19 243.25 164.44 234.25"/><polygon class="cls-2" points="70.44 220.25 118.03 233.13 106.44 253.63 70.44 220.25"/><polygon class="cls-2" points="237.85 165.47 176.25 84.34 169.84 91.38 223.85 159.16 149.97 113.73 142.35 122.08 195.28 191.5 122.38 144.44 115.94 151.63 203 204.56 209.44 197.44 155.56 126.63 231.94 172.22 237.85 165.47"/><polygon class="cls-2" points="243.69 40.63 200.19 66.38 250.81 152.63 296.06 126.13 289.94 115.88 252.81 137.75 235.81 108.25 269.06 88.75 262.69 78.75 229.56 98.25 214.06 71.75 249.69 50.88 243.69 40.63"/><path class="cls-2" d="M360.35,43.4,389.52,139c19-6.08,39.66-10.08,42.5-21.25,3.83-11.41,0-38-19.92-41.08,3.83-5,6.33-16.58,1.67-27.42-4.32-10-11.1-14.35-17.37-14.83C390.93,34,374.52,38.4,360.35,43.4Z" transform="translate(-82.08 -15.6)"/><path class="cls-2" d="M372.64,52.11l8.5,28.62c29.75-5.5,30.18-14.2,24.39-26.63C401.64,45.73,400.64,42.36,372.64,52.11Z" transform="translate(-82.08 -15.6)"/><path class="cls-2" d="M385,92.36l10,32.71c20.47-6.08,24.67-7,27.69-12.84.83-1.59,1.76-9.14-.54-15.12s-6.81-10.43-10-11.11C408.44,85.2,398.52,87.48,385,92.36Z" transform="translate(-82.08 -15.6)"/><polygon class="cls-2" points="422.9 0.13 411.06 0.13 409.69 100 417.69 100 419.69 16 438.81 100 447.31 100 468.44 17.63 467.69 100.75 475.69 100.75 476.7 0.13 465.32 0.13 443.19 86.13 422.9 0.13"/><polygon class="cls-2" points="548.95 11.76 539.7 9.51 490.81 100.75 500.44 103.13 514.95 75.55 543.27 82.13 544.32 113.38 553.82 115.83 548.95 11.76"/><polygon class="cls-2" points="541.86 21.63 519.7 65.47 542.52 70.8 541.86 21.63"/><polygon class="cls-2" points="624.95 36.56 616.88 31.82 567.45 119 575.07 123.5 613.7 55.13 607.2 141.63 615.32 146.38 664.7 59.26 657.07 54.88 618.45 122.63 624.95 36.56"/><polygon class="cls-2" points="720.7 101.5 712.95 95 627.86 153.72 635.4 160.13 660.86 142.09 683.2 161 669.82 189.34 677.86 196.22 720.7 101.5"/><polygon class="cls-2" points="709.82 106.41 670.07 135.63 687.95 150.75 709.82 106.41"/><path class="cls-2" d="M859.52,221.73s14.62-12,14.25-26-14-28.62-31.63-28S807,179.86,807,179.86s-12.88,8.5-20,17.12-14,25.08-6,39.13c7.25,12.75,20.37,16.87,30,18.12l31.25-20.12-15.88-24.75-9.75,6.12,11,17.5-15.37,10s-13.5.63-20.13-11.75-2.75-24.87,10-36,33.94-20.45,46.25-16.5c10,3.21,14,13.06,14.13,16.88.25,8-.92,11.62-10.13,20.87Z" transform="translate(-82.08 -15.6)"/><polygon class="cls-2" points="848.32 262.5 827.95 216.5 736.45 257.13 757.7 304.88 768.2 300.13 750.82 260.69 782.07 247 797.95 282.25 808.7 277.5 793.07 242.13 820.95 229.63 837.86 267.5 848.32 262.5"/><polygon class="cls-2" points="861.7 298 763.32 315.63 764.82 324.5 848.32 309.63 768.45 344.5 769.82 352.63 855.45 358.13 773.57 372.88 775.07 381.63 873.59 363.8 871.02 350 783.82 346.63 864.32 311.75 861.7 298"/><polygon class="cls-2" points="886.7 387.75 786.86 396.3 791.13 448.19 802.95 447.19 799.13 404.56 833.25 401.63 836.57 440.14 848.2 439.13 845.2 400.67 875.65 398.13 879 439.13 890.95 438.13 886.7 387.75"/><polygon class="cls-2" points="892.95 454.88 793.2 458.13 793.2 466.13 871.86 463.96 794.52 503.13 794.7 512.29 894.02 509.71 894.02 501.21 816.2 503.3 893.11 463.96 892.95 454.88"/><polygon class="cls-2" points="893.02 525.97 881.11 525.97 881.11 548.97 793.04 548.59 793.13 557.59 881.2 557.97 880.95 581.45 893.02 581.45 893.02 525.97"/><text class="cls-3" transform="translate(159.97 521.09)">GO<tspan class="cls-4" x="90.62" y="0">T </tspan><tspan x="140.37" y="0">YOU COVERED</tspan></text></svg>